<svg width="188" height="60" viewBox="0 0 188 60" fill="none" xmlns="http://www.w3.org/2000/svg">
<g filter="url(#filter0_d_1303_9)">
<path d="M28.94 50.66C28.5733 50.8433 28.2433 50.935 27.95 50.935C27.51 50.935 26.96 50.7883 26.3 50.495C25.6767 50.2017 25.035 49.8533 24.375 49.45C23.715 49.01 23.0917 48.57 22.505 48.13C21.955 47.69 21.515 47.3233 21.185 47.03C20.085 46.0033 19.0583 44.9033 18.105 43.73C17.1517 42.52 16.2533 41.2917 15.41 40.045C15.41 40.375 15.3917 40.9983 15.355 41.915C15.3183 42.795 15.2817 43.7483 15.245 44.775C15.245 45.765 15.2083 46.7183 15.135 47.635C15.0983 48.515 15.0617 49.12 15.025 49.45C14.9517 49.7433 14.7683 50 14.475 50.22C14.1817 50.44 13.87 50.5683 13.54 50.605C12.1833 50.825 10.8083 50.9167 9.415 50.88C8.02167 50.88 6.62833 50.8433 5.235 50.77C4.72167 50.7333 4.17167 50.6783 3.585 50.605C2.99833 50.5317 2.50333 50.3117 2.1 49.945C1.66 49.5783 1.34833 49.0283 1.165 48.295C1.01833 47.525 0.926667 46.7 0.89 45.82C0.853333 44.94 0.871667 44.06 0.945 43.18C1.01833 42.3 1.07333 41.585 1.11 41.035C1.36667 37.6983 1.62333 34.38 1.88 31.08C2.13667 27.78 2.57667 24.48 3.2 21.18C3.31 20.74 3.40167 20.135 3.475 19.365C3.585 18.595 3.71333 17.7517 3.86 16.835C4.00667 15.9183 4.15333 14.9833 4.3 14.03C4.48333 13.04 4.685 12.105 4.905 11.225C5.125 10.345 5.36333 9.575 5.62 8.915C5.87667 8.21833 6.17 7.705 6.5 7.375C6.79333 7.08166 7.17833 6.88 7.655 6.77C8.13167 6.66 8.59 6.58667 9.03 6.55C10.6067 6.47666 12.1833 6.45833 13.76 6.495C15.3733 6.495 16.9317 6.75167 18.435 7.265C18.8383 7.375 19.2233 7.54 19.59 7.76C19.9567 7.94333 20.195 8.23667 20.305 8.64C20.3783 8.89666 20.36 9.28166 20.25 9.795C20.1767 10.3083 20.0483 10.84 19.865 11.39C19.7183 11.94 19.5533 12.4717 19.37 12.985C19.1867 13.4617 19.0583 13.8283 18.985 14.085C18.9117 14.2683 18.8017 14.5983 18.655 15.075C18.545 15.5517 18.4167 16.0833 18.27 16.67C18.16 17.22 18.0317 17.7517 17.885 18.265C17.775 18.7417 17.7017 19.0533 17.665 19.2C19.535 17.22 21.4783 15.3317 23.495 13.535C24.3383 12.8017 25.1817 12.0867 26.025 11.39C26.8683 10.6933 27.7667 10.07 28.72 9.52C29.0133 9.33666 29.325 9.17166 29.655 9.025C29.985 8.84166 30.315 8.71333 30.645 8.64C31.525 8.45666 32.3317 8.64 33.065 9.19C33.3583 9.37333 33.615 9.59333 33.835 9.85C34.0917 10.07 34.33 10.3083 34.55 10.565C35.2833 11.2983 35.98 12.0867 36.64 12.93C37.3 13.7733 37.8317 14.69 38.235 15.68C38.3817 16.01 38.4917 16.3767 38.565 16.78C38.6383 17.1833 38.5833 17.55 38.4 17.88C38.29 18.0633 38.0517 18.3017 37.685 18.595C37.355 18.8517 36.9883 19.1267 36.585 19.42C36.1817 19.7133 35.7783 19.9883 35.375 20.245C35.0083 20.5017 34.7517 20.685 34.605 20.795C33.615 21.6017 32.6067 22.39 31.58 23.16C30.5533 23.8933 29.5267 24.645 28.5 25.415C27.4733 26.1483 26.465 26.9183 25.475 27.725C24.485 28.5317 23.5683 29.4117 22.725 30.365C24.0083 32.2717 25.5117 34.05 27.235 35.7C28.9583 37.3133 30.81 38.7067 32.79 39.88C33.2667 40.1733 33.725 40.485 34.165 40.815C34.605 41.145 34.99 41.53 35.32 41.97C35.7233 42.52 35.815 43.1067 35.595 43.73C35.485 44.06 35.3017 44.3717 35.045 44.665C34.825 44.9217 34.5867 45.1967 34.33 45.49C34.11 45.71 33.7617 46.095 33.285 46.645C32.8083 47.1583 32.295 47.69 31.745 48.24C31.195 48.79 30.645 49.3033 30.095 49.78C29.5817 50.22 29.1967 50.5133 28.94 50.66ZM65.787 48.845C63.807 49.7983 61.6803 50.4033 59.407 50.66C57.1337 50.9167 54.9153 50.8433 52.752 50.44C51.102 50.1467 49.4703 49.6333 47.857 48.9C46.2437 48.13 44.8503 47.14 43.677 45.93C42.2103 44.4267 41.037 42.7033 40.157 40.76C39.277 38.78 38.6353 36.7633 38.232 34.71C37.4987 30.97 37.3703 27.175 37.847 23.325C38.3237 19.4383 39.2403 15.7167 40.597 12.16C40.6703 11.94 40.817 11.5917 41.037 11.115C41.257 10.6383 41.477 10.345 41.697 10.235C42.467 9.905 43.2737 9.685 44.117 9.575C44.9603 9.42833 45.8037 9.355 46.647 9.355C47.4903 9.31833 48.3153 9.31833 49.122 9.355C49.9287 9.39166 50.7537 9.48333 51.597 9.63C52.147 9.70333 52.697 9.81333 53.247 9.96C53.8337 10.1067 54.3653 10.345 54.842 10.675C55.0253 10.785 55.1903 10.9317 55.337 11.115C55.4837 11.2617 55.557 11.4267 55.557 11.61C55.557 11.6833 55.5387 11.7567 55.502 11.83C55.4653 11.8667 55.447 11.9217 55.447 11.995C55.0437 13.865 54.5303 15.7167 53.907 17.55C53.2837 19.3467 52.807 21.1983 52.477 23.105C52.2203 24.4617 52.092 25.855 52.092 27.285C52.092 28.6783 52.312 30.0167 52.752 31.3C53.0453 32.3267 53.5587 33.1517 54.292 33.775C54.8053 34.215 55.3553 34.4717 55.942 34.545C56.5653 34.6183 57.1703 34.5817 57.757 34.435C58.3437 34.2517 58.912 33.9767 59.462 33.61C60.012 33.2067 60.4887 32.73 60.892 32.18C61.4053 31.4467 61.8087 30.6583 62.102 29.815C62.432 28.935 62.652 28.055 62.762 27.175C62.9453 25.8917 63.037 24.59 63.037 23.27C63.0737 21.95 63.0553 20.6483 62.982 19.365C62.9087 17.7517 62.7803 16.1567 62.597 14.58C62.4503 12.9667 62.267 11.3717 62.047 9.795C61.937 9.17167 62.1753 8.75 62.762 8.53C63.3487 8.27333 63.9537 8.10833 64.577 8.035C64.797 7.99833 65.2187 7.96166 65.842 7.925C66.4653 7.88833 67.1253 7.85167 67.822 7.815C68.5553 7.77833 69.2337 7.74167 69.857 7.705C70.4803 7.66833 70.902 7.65 71.122 7.65C71.3053 7.65 71.5803 7.66833 71.947 7.705C72.3137 7.705 72.6987 7.74166 73.102 7.815C73.5053 7.85167 73.872 7.90666 74.202 7.98C74.5687 8.05333 74.8437 8.145 75.027 8.255C75.2837 8.43833 75.467 8.67667 75.577 8.97C75.687 9.26333 75.7787 9.55667 75.852 9.85C76.5853 13.5167 77.0437 17.22 77.227 20.96C77.4103 24.7 77.1537 28.4033 76.457 32.07C76.0903 34.05 75.5587 36.0117 74.862 37.955C74.1653 39.8617 73.2303 41.64 72.057 43.29C71.2503 44.4633 70.3153 45.5267 69.252 46.48C68.1887 47.4333 67.0337 48.2217 65.787 48.845ZM89.5066 51.485C89.1033 51.595 88.4249 51.65 87.4716 51.65C86.5183 51.6867 85.5099 51.6867 84.4466 51.65C83.4199 51.6133 82.4299 51.5583 81.4766 51.485C80.5233 51.4117 79.8449 51.3567 79.4416 51.32C79.2216 51.32 78.9649 51.3017 78.6716 51.265C78.3783 51.2283 78.0849 51.1733 77.7916 51.1C77.4983 51.0267 77.2233 50.9167 76.9666 50.77C76.7466 50.66 76.5999 50.5133 76.5266 50.33C76.3799 49.89 76.2699 49.1933 76.1966 48.24C76.1599 47.25 76.1416 46.205 76.1416 45.105C76.1416 44.005 76.1599 42.96 76.1966 41.97C76.2333 40.9433 76.2699 40.21 76.3066 39.77C76.3066 39.4767 76.3249 38.8533 76.3616 37.9C76.4349 36.91 76.4899 35.865 76.5266 34.765C76.5999 33.665 76.6549 32.6383 76.6916 31.685C76.7649 30.695 76.8199 30.035 76.8566 29.705C76.8933 29.4483 76.9299 29.0083 76.9666 28.385C77.0399 27.7617 77.1133 27.0467 77.1866 26.24C77.2599 25.4333 77.3333 24.59 77.4066 23.71C77.4799 22.7933 77.5533 21.9317 77.6266 21.125C77.7366 20.3183 77.8099 19.6033 77.8466 18.98C77.9199 18.3567 77.9749 17.9167 78.0116 17.66C78.1216 16.7067 78.2316 15.7533 78.3416 14.8C78.4516 13.81 78.5983 12.8383 78.7816 11.885C78.8549 11.4083 78.9466 10.9317 79.0566 10.455C79.1666 9.94166 79.3316 9.465 79.5516 9.025C79.7349 8.65833 80.0283 8.365 80.4316 8.145C80.7249 7.99833 81.0366 7.90666 81.3666 7.87C81.6966 7.79667 82.0266 7.74167 82.3566 7.705C85.9133 7.375 89.4883 7.24666 93.0816 7.32C96.7116 7.39333 100.25 7.85166 103.697 8.695C105.127 9.06166 106.465 9.70333 107.712 10.62C108.995 11.5367 110.058 12.6 110.902 13.81C111.635 14.8733 112.203 16.065 112.607 17.385C113.047 18.6683 113.322 19.9517 113.432 21.235C113.542 22.995 113.413 24.7917 113.047 26.625C112.68 28.4217 112.075 30.09 111.232 31.63C110.938 32.1433 110.627 32.675 110.297 33.225C110.003 33.7383 109.655 34.2333 109.252 34.71C108.958 35.0767 108.61 35.4067 108.207 35.7C107.84 35.9567 107.455 36.2133 107.052 36.47C107.895 37.2767 108.573 38.2117 109.087 39.275C109.637 40.3383 110.077 41.4383 110.407 42.575C110.663 43.4183 110.883 44.28 111.067 45.16C111.287 46.04 111.433 46.9383 111.507 47.855C111.543 48.185 111.525 48.5333 111.452 48.9C111.415 49.2667 111.287 49.5783 111.067 49.835C110.627 50.275 109.948 50.605 109.032 50.825C108.152 51.0817 107.198 51.265 106.172 51.375C105.145 51.485 104.118 51.54 103.092 51.54C102.102 51.5767 101.313 51.5767 100.727 51.54C100.287 51.5033 99.8099 51.4483 99.2966 51.375C98.8199 51.3017 98.4349 51.0817 98.1416 50.715C98.0316 50.5683 97.9216 50.2567 97.8116 49.78C97.7016 49.2667 97.6099 48.9183 97.5366 48.735C97.4266 48.2217 97.3166 47.7083 97.2066 47.195C97.0966 46.645 97.0049 46.095 96.9316 45.545C96.7849 44.775 96.6199 44.005 96.4366 43.235C96.2533 42.465 95.9599 41.7317 95.5566 41.035C95.2633 40.595 94.9149 40.1917 94.5116 39.825C94.1449 39.4583 93.7049 39.1833 93.1916 39C92.8249 38.89 92.4583 38.8167 92.0916 38.78C91.7616 38.7433 91.3949 38.7067 90.9916 38.67C90.9916 39 90.9916 39.6417 90.9916 40.595C91.0283 41.5117 91.0466 42.52 91.0466 43.62C91.0833 44.6833 91.1016 45.6917 91.1016 46.645C91.1383 47.5617 91.1566 48.1667 91.1566 48.46C91.1199 48.8633 91.0833 49.2667 91.0466 49.67C91.0099 50.0733 90.8816 50.4217 90.6616 50.715C90.5149 50.8983 90.3316 51.045 90.1116 51.155C89.9283 51.3017 89.7266 51.4117 89.5066 51.485ZM93.6316 26.57C94.1449 26.6067 94.6766 26.5883 95.2266 26.515C95.8133 26.405 96.3449 26.2583 96.8216 26.075C97.3349 25.855 97.7749 25.58 98.1416 25.25C98.5083 24.8833 98.7466 24.4617 98.8566 23.985C98.9299 23.4717 98.9483 22.9583 98.9116 22.445C98.8749 21.9317 98.7283 21.455 98.4716 21.015C98.2883 20.7217 98.0499 20.4833 97.7566 20.3C97.4999 20.1167 97.2249 19.97 96.9316 19.86C96.4549 19.6767 95.9599 19.5667 95.4466 19.53C94.9699 19.4567 94.4933 19.365 94.0166 19.255C93.6866 19.1817 93.2833 19.1083 92.8066 19.035C92.3666 18.9617 92.0549 19.0717 91.8716 19.365C91.6883 19.6583 91.5416 20.1167 91.4316 20.74C91.3216 21.3633 91.2299 22.0233 91.1566 22.72C91.1199 23.4167 91.0833 24.095 91.0466 24.755C91.0099 25.415 90.9916 25.91 90.9916 26.24C91.4316 26.3133 91.8716 26.3867 92.3116 26.46C92.7516 26.4967 93.1916 26.5333 93.6316 26.57ZM133.06 50.165C132.693 50.165 131.978 50.165 130.915 50.165C129.851 50.2017 128.715 50.22 127.505 50.22C126.331 50.22 125.213 50.22 124.15 50.22C123.086 50.22 122.371 50.2017 122.005 50.165C121.601 50.165 121.198 50.11 120.795 50C120.428 49.8533 120.098 49.6333 119.805 49.34C119.511 49.0467 119.31 48.68 119.2 48.24C119.09 47.8 119.035 47.36 119.035 46.92C119.035 41.97 119.181 37.0383 119.475 32.125C119.768 27.2117 120.043 22.28 120.3 17.33C120.19 17.3667 119.97 17.4033 119.64 17.44C119.31 17.4767 118.943 17.5317 118.54 17.605C118.173 17.6417 117.825 17.6967 117.495 17.77C117.165 17.8067 116.945 17.825 116.835 17.825C116.651 17.8617 116.413 17.9167 116.12 17.99C115.826 18.0633 115.515 18.1367 115.185 18.21C114.855 18.2467 114.543 18.2833 114.25 18.32C113.993 18.3567 113.791 18.3383 113.645 18.265C113.425 18.1917 113.241 17.9717 113.095 17.605C113.021 17.4583 112.948 17.1833 112.875 16.78C112.801 16.3767 112.728 15.955 112.655 15.515C112.581 15.0383 112.526 14.5983 112.49 14.195C112.416 13.7917 112.38 13.5167 112.38 13.37C112.343 13.1867 112.306 12.9483 112.27 12.655C112.233 12.325 112.215 11.995 112.215 11.665C112.215 11.335 112.233 11.0417 112.27 10.785C112.306 10.4917 112.38 10.2717 112.49 10.125C112.6 9.94167 112.801 9.795 113.095 9.685C113.425 9.53833 113.773 9.42833 114.14 9.355C114.506 9.245 114.855 9.17166 115.185 9.135C115.551 9.06166 115.845 9.00666 116.065 8.97C119.438 8.56666 122.811 8.365 126.185 8.365C129.558 8.32833 132.95 8.27333 136.36 8.2C137.093 8.16333 137.808 8.12666 138.505 8.09C139.201 8.05333 139.916 8.12667 140.65 8.31C140.833 8.38333 140.998 8.45666 141.145 8.53C141.328 8.56667 141.475 8.65833 141.585 8.805C141.695 8.915 141.768 9.11666 141.805 9.41C141.841 9.70333 141.86 10.015 141.86 10.345C141.86 10.675 141.841 11.005 141.805 11.335C141.805 11.6283 141.805 11.8483 141.805 11.995C141.805 12.1783 141.786 12.435 141.75 12.765C141.75 13.0583 141.731 13.3883 141.695 13.755C141.695 14.085 141.658 14.415 141.585 14.745C141.548 15.0383 141.475 15.2583 141.365 15.405C141.181 15.5883 140.833 15.7533 140.32 15.9C139.806 16.01 139.403 16.1017 139.11 16.175C138.376 16.285 137.643 16.3767 136.91 16.45C136.176 16.4867 135.443 16.56 134.71 16.67C134.673 16.8533 134.673 17.0183 134.71 17.165C134.746 17.3117 134.765 17.4583 134.765 17.605C134.985 22.4817 135.205 27.3217 135.425 32.125C135.681 36.8917 135.938 41.695 136.195 46.535C136.231 47.0117 136.231 47.5067 136.195 48.02C136.195 48.4967 136.048 48.9367 135.755 49.34C135.461 49.7067 135.058 49.9267 134.545 50C134.031 50.11 133.536 50.165 133.06 50.165ZM159.629 50.77C157.649 51.21 155.632 51.3567 153.579 51.21C151.526 51.0633 149.564 50.6233 147.694 49.89C146.484 49.4133 145.329 48.8083 144.229 48.075C143.129 47.3417 142.157 46.4617 141.314 45.435C140.397 44.2983 139.682 43.0333 139.169 41.64C138.656 40.2467 138.307 38.835 138.124 37.405C137.721 34.875 137.684 32.3083 138.014 29.705C138.344 27.1017 138.986 24.59 139.939 22.17C140.562 20.52 141.314 18.925 142.194 17.385C143.111 15.845 144.192 14.4333 145.439 13.15C147.272 11.28 149.399 9.88667 151.819 8.97C153.249 8.42 154.752 8.07166 156.329 7.925C157.906 7.77833 159.464 7.79666 161.004 7.98C161.847 8.09 162.672 8.23666 163.479 8.42C164.286 8.56666 165.056 8.805 165.789 9.135C166.522 9.50166 167.256 9.88666 167.989 10.29C168.759 10.6567 169.474 11.0967 170.134 11.61C171.014 12.27 171.839 13.0217 172.609 13.865C173.379 14.7083 174.021 15.6067 174.534 16.56C175.377 18.1 175.891 19.7867 176.074 21.62C176.294 23.4533 176.331 25.2683 176.184 27.065C175.964 30.0717 175.322 33.0783 174.259 36.085C173.232 39.055 171.729 41.7133 169.749 44.06C169.236 44.6833 168.686 45.3067 168.099 45.93C167.512 46.5533 166.889 47.1217 166.229 47.635C165.276 48.3683 164.231 49.01 163.094 49.56C161.957 50.11 160.802 50.5133 159.629 50.77ZM153.634 37.57C154.001 37.8267 154.367 37.955 154.734 37.955C155.137 37.955 155.522 37.8817 155.889 37.735C156.256 37.5517 156.586 37.3133 156.879 37.02C157.429 36.5067 157.887 35.9383 158.254 35.315C158.657 34.655 159.024 33.9767 159.354 33.28C159.867 32.3267 160.307 31.355 160.674 30.365C161.041 29.375 161.334 28.3483 161.554 27.285C161.701 26.735 161.792 26.185 161.829 25.635C161.902 25.0483 161.866 24.4983 161.719 23.985C161.646 23.6917 161.517 23.4167 161.334 23.16C161.187 22.9033 160.986 22.6833 160.729 22.5C160.252 22.17 159.592 21.9867 158.749 21.95C157.906 21.9133 157.246 22.06 156.769 22.39C156.366 22.6833 155.962 23.1967 155.559 23.93C155.156 24.6267 154.789 25.3967 154.459 26.24C154.129 27.0833 153.836 27.9267 153.579 28.77C153.359 29.5767 153.194 30.2183 153.084 30.695C152.974 31.1717 152.864 31.7583 152.754 32.455C152.681 33.115 152.626 33.775 152.589 34.435C152.589 35.095 152.662 35.7183 152.809 36.305C152.956 36.855 153.231 37.2767 153.634 37.57Z" fill="#1662F8"/>
</g>
<g filter="url(#filter1_d_1303_9)">
<path d="M32.4 49.6C32.0667 49.7667 31.7667 49.85 31.5 49.85C31.1 49.85 30.6 49.7167 30 49.45C29.4333 49.1833 28.85 48.8667 28.25 48.5C27.65 48.1 27.0833 47.7 26.55 47.3C26.05 46.9 25.65 46.5667 25.35 46.3C24.35 45.3667 23.4167 44.3667 22.55 43.3C21.6833 42.2 20.8667 41.0833 20.1 39.95C20.1 40.25 20.0833 40.8167 20.05 41.65C20.0167 42.45 19.9833 43.3167 19.95 44.25C19.95 45.15 19.9167 46.0167 19.85 46.85C19.8167 47.65 19.7833 48.2 19.75 48.5C19.6833 48.7667 19.5167 49 19.25 49.2C18.9833 49.4 18.7 49.5167 18.4 49.55C17.1667 49.75 15.9167 49.8333 14.65 49.8C13.3833 49.8 12.1167 49.7667 10.85 49.7C10.3833 49.6667 9.88333 49.6167 9.35 49.55C8.81667 49.4833 8.36667 49.2833 8 48.95C7.6 48.6167 7.31667 48.1167 7.15 47.45C7.01667 46.75 6.93333 46 6.9 45.2C6.86667 44.4 6.88333 43.6 6.95 42.8C7.01667 42 7.06667 41.35 7.1 40.85C7.33333 37.8167 7.56667 34.8 7.8 31.8C8.03333 28.8 8.43333 25.8 9 22.8C9.1 22.4 9.18333 21.85 9.25 21.15C9.35 20.45 9.46667 19.6833 9.6 18.85C9.73333 18.0167 9.86667 17.1667 10 16.3C10.1667 15.4 10.35 14.55 10.55 13.75C10.75 12.95 10.9667 12.25 11.2 11.65C11.4333 11.0167 11.7 10.55 12 10.25C12.2667 9.98333 12.6167 9.8 13.05 9.7C13.4833 9.6 13.9 9.53333 14.3 9.5C15.7333 9.43333 17.1667 9.41666 18.6 9.45C20.0667 9.45 21.4833 9.68333 22.85 10.15C23.2167 10.25 23.5667 10.4 23.9 10.6C24.2333 10.7667 24.45 11.0333 24.55 11.4C24.6167 11.6333 24.6 11.9833 24.5 12.45C24.4333 12.9167 24.3167 13.4 24.15 13.9C24.0167 14.4 23.8667 14.8833 23.7 15.35C23.5333 15.7833 23.4167 16.1167 23.35 16.35C23.2833 16.5167 23.1833 16.8167 23.05 17.25C22.95 17.6833 22.8333 18.1667 22.7 18.7C22.6 19.2 22.4833 19.6833 22.35 20.15C22.25 20.5833 22.1833 20.8667 22.15 21C23.85 19.2 25.6167 17.4833 27.45 15.85C28.2167 15.1833 28.9833 14.5333 29.75 13.9C30.5167 13.2667 31.3333 12.7 32.2 12.2C32.4667 12.0333 32.75 11.8833 33.05 11.75C33.35 11.5833 33.65 11.4667 33.95 11.4C34.75 11.2333 35.4833 11.4 36.15 11.9C36.4167 12.0667 36.65 12.2667 36.85 12.5C37.0833 12.7 37.3 12.9167 37.5 13.15C38.1667 13.8167 38.8 14.5333 39.4 15.3C40 16.0667 40.4833 16.9 40.85 17.8C40.9833 18.1 41.0833 18.4333 41.15 18.8C41.2167 19.1667 41.1667 19.5 41 19.8C40.9 19.9667 40.6833 20.1833 40.35 20.45C40.05 20.6833 39.7167 20.9333 39.35 21.2C38.9833 21.4667 38.6167 21.7167 38.25 21.95C37.9167 22.1833 37.6833 22.35 37.55 22.45C36.65 23.1833 35.7333 23.9 34.8 24.6C33.8667 25.2667 32.9333 25.95 32 26.65C31.0667 27.3167 30.15 28.0167 29.25 28.75C28.35 29.4833 27.5167 30.2833 26.75 31.15C27.9167 32.8833 29.2833 34.5 30.85 36C32.4167 37.4667 34.1 38.7333 35.9 39.8C36.3333 40.0667 36.75 40.35 37.15 40.65C37.55 40.95 37.9 41.3 38.2 41.7C38.5667 42.2 38.65 42.7333 38.45 43.3C38.35 43.6 38.1833 43.8833 37.95 44.15C37.75 44.3833 37.5333 44.6333 37.3 44.9C37.1 45.1 36.7833 45.45 36.35 45.95C35.9167 46.4167 35.45 46.9 34.95 47.4C34.45 47.9 33.95 48.3667 33.45 48.8C32.9833 49.2 32.6333 49.4667 32.4 49.6ZM65.8973 47.95C64.0973 48.8167 62.1639 49.3667 60.0973 49.6C58.0306 49.8333 56.0139 49.7667 54.0473 49.4C52.5473 49.1333 51.0639 48.6667 49.5973 48C48.1306 47.3 46.8639 46.4 45.7973 45.3C44.4639 43.9333 43.3973 42.3667 42.5973 40.6C41.7973 38.8 41.2139 36.9667 40.8473 35.1C40.1806 31.7 40.0639 28.25 40.4973 24.75C40.9306 21.2167 41.7639 17.8333 42.9973 14.6C43.0639 14.4 43.1973 14.0833 43.3973 13.65C43.5973 13.2167 43.7973 12.95 43.9973 12.85C44.6973 12.55 45.4306 12.35 46.1973 12.25C46.9639 12.1167 47.7306 12.05 48.4973 12.05C49.2639 12.0167 50.0139 12.0167 50.7473 12.05C51.4806 12.0833 52.2306 12.1667 52.9973 12.3C53.4973 12.3667 53.9973 12.4667 54.4973 12.6C55.0306 12.7333 55.5139 12.95 55.9473 13.25C56.1139 13.35 56.2639 13.4833 56.3973 13.65C56.5306 13.7833 56.5973 13.9333 56.5973 14.1C56.5973 14.1667 56.5806 14.2333 56.5473 14.3C56.5139 14.3333 56.4973 14.3833 56.4973 14.45C56.1306 16.15 55.6639 17.8333 55.0973 19.5C54.5306 21.1333 54.0973 22.8167 53.7973 24.55C53.5639 25.7833 53.4473 27.05 53.4473 28.35C53.4473 29.6167 53.6473 30.8333 54.0473 32C54.3139 32.9333 54.7806 33.6833 55.4473 34.25C55.9139 34.65 56.4139 34.8833 56.9473 34.95C57.5139 35.0167 58.0639 34.9833 58.5973 34.85C59.1306 34.6833 59.6473 34.4333 60.1473 34.1C60.6473 33.7333 61.0806 33.3 61.4473 32.8C61.9139 32.1333 62.2806 31.4167 62.5473 30.65C62.8473 29.85 63.0473 29.05 63.1473 28.25C63.3139 27.0833 63.3973 25.9 63.3973 24.7C63.4306 23.5 63.4139 22.3167 63.3473 21.15C63.2806 19.6833 63.1639 18.2333 62.9973 16.8C62.8639 15.3333 62.6973 13.8833 62.4973 12.45C62.3973 11.8833 62.6139 11.5 63.1473 11.3C63.6806 11.0667 64.2306 10.9167 64.7973 10.85C64.9973 10.8167 65.3806 10.7833 65.9473 10.75C66.5139 10.7167 67.1139 10.6833 67.7473 10.65C68.4139 10.6167 69.0306 10.5833 69.5973 10.55C70.1639 10.5167 70.5473 10.5 70.7473 10.5C70.9139 10.5 71.1639 10.5167 71.4973 10.55C71.8306 10.55 72.1806 10.5833 72.5473 10.65C72.9139 10.6833 73.2473 10.7333 73.5473 10.8C73.8806 10.8667 74.1306 10.95 74.2973 11.05C74.5306 11.2167 74.6973 11.4333 74.7973 11.7C74.8973 11.9667 74.9806 12.2333 75.0473 12.5C75.7139 15.8333 76.1306 19.2 76.2973 22.6C76.4639 26 76.2306 29.3667 75.5973 32.7C75.2639 34.5 74.7806 36.2833 74.1473 38.05C73.5139 39.7833 72.6639 41.4 71.5973 42.9C70.8639 43.9667 70.0139 44.9333 69.0473 45.8C68.0806 46.6667 67.0306 47.3833 65.8973 47.95ZM87.4605 50.35C87.0939 50.45 86.4772 50.5 85.6105 50.5C84.7439 50.5333 83.8272 50.5333 82.8605 50.5C81.9272 50.4667 81.0272 50.4167 80.1605 50.35C79.2939 50.2833 78.6772 50.2333 78.3105 50.2C78.1105 50.2 77.8772 50.1833 77.6105 50.15C77.3439 50.1167 77.0772 50.0667 76.8105 50C76.5439 49.9333 76.2939 49.8333 76.0605 49.7C75.8605 49.6 75.7272 49.4667 75.6605 49.3C75.5272 48.9 75.4272 48.2667 75.3605 47.4C75.3272 46.5 75.3105 45.55 75.3105 44.55C75.3105 43.55 75.3272 42.6 75.3605 41.7C75.3939 40.7667 75.4272 40.1 75.4605 39.7C75.4605 39.4333 75.4772 38.8667 75.5105 38C75.5772 37.1 75.6272 36.15 75.6605 35.15C75.7272 34.15 75.7772 33.2167 75.8105 32.35C75.8772 31.45 75.9272 30.85 75.9605 30.55C75.9939 30.3167 76.0272 29.9167 76.0605 29.35C76.1272 28.7833 76.1939 28.1333 76.2605 27.4C76.3272 26.6667 76.3939 25.9 76.4605 25.1C76.5272 24.2667 76.5939 23.4833 76.6605 22.75C76.7605 22.0167 76.8272 21.3667 76.8605 20.8C76.9272 20.2333 76.9772 19.8333 77.0105 19.6C77.1105 18.7333 77.2105 17.8667 77.3105 17C77.4105 16.1 77.5439 15.2167 77.7105 14.35C77.7772 13.9167 77.8605 13.4833 77.9605 13.05C78.0605 12.5833 78.2105 12.15 78.4105 11.75C78.5772 11.4167 78.8439 11.15 79.2105 10.95C79.4772 10.8167 79.7605 10.7333 80.0605 10.7C80.3605 10.6333 80.6605 10.5833 80.9605 10.55C84.1939 10.25 87.4439 10.1333 90.7105 10.2C94.0105 10.2667 97.2272 10.6833 100.361 11.45C101.661 11.7833 102.877 12.3667 104.011 13.2C105.177 14.0333 106.144 15 106.911 16.1C107.577 17.0667 108.094 18.15 108.461 19.35C108.861 20.5167 109.111 21.6833 109.211 22.85C109.311 24.45 109.194 26.0833 108.861 27.75C108.527 29.3833 107.977 30.9 107.211 32.3C106.944 32.7667 106.661 33.25 106.361 33.75C106.094 34.2167 105.777 34.6667 105.411 35.1C105.144 35.4333 104.827 35.7333 104.461 36C104.127 36.2333 103.777 36.4667 103.411 36.7C104.177 37.4333 104.794 38.2833 105.261 39.25C105.761 40.2167 106.161 41.2167 106.461 42.25C106.694 43.0167 106.894 43.8 107.061 44.6C107.261 45.4 107.394 46.2167 107.461 47.05C107.494 47.35 107.477 47.6667 107.411 48C107.377 48.3333 107.261 48.6167 107.061 48.85C106.661 49.25 106.044 49.55 105.211 49.75C104.411 49.9833 103.544 50.15 102.611 50.25C101.677 50.35 100.744 50.4 99.8105 50.4C98.9105 50.4333 98.1939 50.4333 97.6605 50.4C97.2605 50.3667 96.8272 50.3167 96.3605 50.25C95.9272 50.1833 95.5772 49.9833 95.3105 49.65C95.2105 49.5167 95.1105 49.2333 95.0105 48.8C94.9105 48.3333 94.8272 48.0167 94.7605 47.85C94.6605 47.3833 94.5605 46.9167 94.4605 46.45C94.3605 45.95 94.2772 45.45 94.2105 44.95C94.0772 44.25 93.9272 43.55 93.7605 42.85C93.5939 42.15 93.3272 41.4833 92.9605 40.85C92.6939 40.45 92.3772 40.0833 92.0105 39.75C91.6772 39.4167 91.2772 39.1667 90.8105 39C90.4772 38.9 90.1439 38.8333 89.8105 38.8C89.5105 38.7667 89.1772 38.7333 88.8105 38.7C88.8105 39 88.8105 39.5833 88.8105 40.45C88.8439 41.2833 88.8605 42.2 88.8605 43.2C88.8939 44.1667 88.9105 45.0833 88.9105 45.95C88.9439 46.7833 88.9605 47.3333 88.9605 47.6C88.9272 47.9667 88.8939 48.3333 88.8605 48.7C88.8272 49.0667 88.7105 49.3833 88.5105 49.65C88.3772 49.8167 88.2105 49.95 88.0105 50.05C87.8439 50.1833 87.6605 50.2833 87.4605 50.35ZM91.2105 27.7C91.6772 27.7333 92.1605 27.7167 92.6605 27.65C93.1939 27.55 93.6772 27.4167 94.1105 27.25C94.5772 27.05 94.9772 26.8 95.3105 26.5C95.6439 26.1667 95.8605 25.7833 95.9605 25.35C96.0272 24.8833 96.0439 24.4167 96.0105 23.95C95.9772 23.4833 95.8439 23.05 95.6105 22.65C95.4439 22.3833 95.2272 22.1667 94.9605 22C94.7272 21.8333 94.4772 21.7 94.2105 21.6C93.7772 21.4333 93.3272 21.3333 92.8605 21.3C92.4272 21.2333 91.9939 21.15 91.5605 21.05C91.2605 20.9833 90.8939 20.9167 90.4605 20.85C90.0605 20.7833 89.7772 20.8833 89.6105 21.15C89.4439 21.4167 89.3105 21.8333 89.2105 22.4C89.1105 22.9667 89.0272 23.5667 88.9605 24.2C88.9272 24.8333 88.8939 25.45 88.8605 26.05C88.8272 26.65 88.8105 27.1 88.8105 27.4C89.2105 27.4667 89.6105 27.5333 90.0105 27.6C90.4105 27.6333 90.8105 27.6667 91.2105 27.7ZM127.054 49.15C126.721 49.15 126.071 49.15 125.104 49.15C124.138 49.1833 123.104 49.2 122.004 49.2C120.938 49.2 119.921 49.2 118.954 49.2C117.988 49.2 117.338 49.1833 117.004 49.15C116.638 49.15 116.271 49.1 115.904 49C115.571 48.8667 115.271 48.6667 115.004 48.4C114.738 48.1333 114.554 47.8 114.454 47.4C114.354 47 114.304 46.6 114.304 46.2C114.304 41.7 114.438 37.2167 114.704 32.75C114.971 28.2833 115.221 23.8 115.454 19.3C115.354 19.3333 115.154 19.3667 114.854 19.4C114.554 19.4333 114.221 19.4833 113.854 19.55C113.521 19.5833 113.204 19.6333 112.904 19.7C112.604 19.7333 112.404 19.75 112.304 19.75C112.138 19.7833 111.921 19.8333 111.654 19.9C111.388 19.9667 111.104 20.0333 110.804 20.1C110.504 20.1333 110.221 20.1667 109.954 20.2C109.721 20.2333 109.538 20.2167 109.404 20.15C109.204 20.0833 109.038 19.8833 108.904 19.55C108.838 19.4167 108.771 19.1667 108.704 18.8C108.638 18.4333 108.571 18.05 108.504 17.65C108.438 17.2167 108.388 16.8167 108.354 16.45C108.288 16.0833 108.254 15.8333 108.254 15.7C108.221 15.5333 108.188 15.3167 108.154 15.05C108.121 14.75 108.104 14.45 108.104 14.15C108.104 13.85 108.121 13.5833 108.154 13.35C108.188 13.0833 108.254 12.8833 108.354 12.75C108.454 12.5833 108.638 12.45 108.904 12.35C109.204 12.2167 109.521 12.1167 109.854 12.05C110.188 11.95 110.504 11.8833 110.804 11.85C111.138 11.7833 111.404 11.7333 111.604 11.7C114.671 11.3333 117.738 11.15 120.804 11.15C123.871 11.1167 126.954 11.0667 130.054 11C130.721 10.9667 131.371 10.9333 132.004 10.9C132.638 10.8667 133.288 10.9333 133.954 11.1C134.121 11.1667 134.271 11.2333 134.404 11.3C134.571 11.3333 134.704 11.4167 134.804 11.55C134.904 11.65 134.971 11.8333 135.004 12.1C135.038 12.3667 135.054 12.65 135.054 12.95C135.054 13.25 135.038 13.55 135.004 13.85C135.004 14.1167 135.004 14.3167 135.004 14.45C135.004 14.6167 134.988 14.85 134.954 15.15C134.954 15.4167 134.938 15.7167 134.904 16.05C134.904 16.35 134.871 16.65 134.804 16.95C134.771 17.2167 134.704 17.4167 134.604 17.55C134.438 17.7167 134.121 17.8667 133.654 18C133.188 18.1 132.821 18.1833 132.554 18.25C131.888 18.35 131.221 18.4333 130.554 18.5C129.888 18.5333 129.221 18.6 128.554 18.7C128.521 18.8667 128.521 19.0167 128.554 19.15C128.588 19.2833 128.604 19.4167 128.604 19.55C128.804 23.9833 129.004 28.3833 129.204 32.75C129.438 37.0833 129.671 41.45 129.904 45.85C129.938 46.2833 129.938 46.7333 129.904 47.2C129.904 47.6333 129.771 48.0333 129.504 48.4C129.238 48.7333 128.871 48.9333 128.404 49C127.938 49.1 127.488 49.15 127.054 49.15ZM151.208 49.7C149.408 50.1 147.575 50.2333 145.708 50.1C143.842 49.9667 142.058 49.5667 140.358 48.9C139.258 48.4667 138.208 47.9167 137.208 47.25C136.208 46.5833 135.325 45.7833 134.558 44.85C133.725 43.8167 133.075 42.6667 132.608 41.4C132.142 40.1333 131.825 38.85 131.658 37.55C131.292 35.25 131.258 32.9167 131.558 30.55C131.858 28.1833 132.442 25.9 133.308 23.7C133.875 22.2 134.558 20.75 135.358 19.35C136.192 17.95 137.175 16.6667 138.308 15.5C139.975 13.8 141.908 12.5333 144.108 11.7C145.408 11.2 146.775 10.8833 148.208 10.75C149.642 10.6167 151.058 10.6333 152.458 10.8C153.225 10.9 153.975 11.0333 154.708 11.2C155.442 11.3333 156.142 11.55 156.808 11.85C157.475 12.1833 158.142 12.5333 158.808 12.9C159.508 13.2333 160.158 13.6333 160.758 14.1C161.558 14.7 162.308 15.3833 163.008 16.15C163.708 16.9167 164.292 17.7333 164.758 18.6C165.525 20 165.992 21.5333 166.158 23.2C166.358 24.8667 166.392 26.5167 166.258 28.15C166.058 30.8833 165.475 33.6167 164.508 36.35C163.575 39.05 162.208 41.4667 160.408 43.6C159.942 44.1667 159.442 44.7333 158.908 45.3C158.375 45.8667 157.808 46.3833 157.208 46.85C156.342 47.5167 155.392 48.1 154.358 48.6C153.325 49.1 152.275 49.4667 151.208 49.7ZM145.758 37.7C146.092 37.9333 146.425 38.05 146.758 38.05C147.125 38.05 147.475 37.9833 147.808 37.85C148.142 37.6833 148.442 37.4667 148.708 37.2C149.208 36.7333 149.625 36.2167 149.958 35.65C150.325 35.05 150.658 34.4333 150.958 33.8C151.425 32.9333 151.825 32.05 152.158 31.15C152.492 30.25 152.758 29.3167 152.958 28.35C153.092 27.85 153.175 27.35 153.208 26.85C153.275 26.3167 153.242 25.8167 153.108 25.35C153.042 25.0833 152.925 24.8333 152.758 24.6C152.625 24.3667 152.442 24.1667 152.208 24C151.775 23.7 151.175 23.5333 150.408 23.5C149.642 23.4667 149.042 23.6 148.608 23.9C148.242 24.1667 147.875 24.6333 147.508 25.3C147.142 25.9333 146.808 26.6333 146.508 27.4C146.208 28.1667 145.942 28.9333 145.708 29.7C145.508 30.4333 145.358 31.0167 145.258 31.45C145.158 31.8833 145.058 32.4167 144.958 33.05C144.892 33.65 144.842 34.25 144.808 34.85C144.808 35.45 144.875 36.0167 145.008 36.55C145.142 37.05 145.392 37.4333 145.758 37.7Z" fill="white"/>
</g>
<defs>
<filter id="filter0_d_1303_9" x="0.835938" y="6.43994" width="175.568" height="48.2651" filterUnits="userSpaceOnUse" color-interpolation-filters="sRGB">
<feFlood flood-opacity="0" result="BackgroundImageFix"/>
<feColorMatrix in="SourceAlpha" type="matrix" values="0 0 0 0 0 0 0 0 0 0 0 0 0 0 0 0 0 0 127 0" result="hardAlpha"/>
<feOffset dy="3"/>
<feComposite in2="hardAlpha" operator="out"/>
<feColorMatrix type="matrix" values="0 0 0 0 0 0 0 0 0 0 0 0 0 0 0 0 0 0 0.98 0"/>
<feBlend mode="normal" in2="BackgroundImageFix" result="effect1_dropShadow_1303_9"/>
<feBlend mode="normal" in="SourceGraphic" in2="effect1_dropShadow_1303_9" result="shape"/>
</filter>
<filter id="filter1_d_1303_9" x="2.84961" y="9.3999" width="167.609" height="50.1499" filterUnits="userSpaceOnUse" color-interpolation-filters="sRGB">
<feFlood flood-opacity="0" result="BackgroundImageFix"/>
<feColorMatrix in="SourceAlpha" type="matrix" values="0 0 0 0 0 0 0 0 0 0 0 0 0 0 0 0 0 0 127 0" result="hardAlpha"/>
<feOffset dy="5"/>
<feGaussianBlur stdDeviation="2"/>
<feComposite in2="hardAlpha" operator="out"/>
<feColorMatrix type="matrix" values="0 0 0 0 0 0 0 0 0 0 0 0 0 0 0 0 0 0 0.59 0"/>
<feBlend mode="normal" in2="BackgroundImageFix" result="effect1_dropShadow_1303_9"/>
<feBlend mode="normal" in="SourceGraphic" in2="effect1_dropShadow_1303_9" result="shape"/>
</filter>
</defs>
</svg>
